<svg width="183" height="61" viewBox="0 0 183 61" fill="none" xmlns="http://www.w3.org/2000/svg">
<g filter="url(#filter0_d_101_15)">
<path d="M14.678 6.424C14.762 6.844 14.888 7.642 15.056 8.818C15.224 9.966 15.364 11.352 15.476 12.976C15.616 14.628 15.672 16.42 15.644 18.352C15.616 20.284 15.49 22.216 15.266 24.148C15.042 26.08 14.748 27.942 14.384 29.734C14.02 31.498 13.614 33.052 13.166 34.396C12.746 35.74 12.34 36.79 11.948 37.546C11.584 38.302 11.304 38.652 11.108 38.596C10.884 38.54 10.786 38.092 10.814 37.252C10.842 36.412 10.898 35.32 10.982 33.976C11.066 32.604 11.136 31.064 11.192 29.356C11.248 27.62 11.248 25.828 11.192 23.98C11.136 22.132 11.024 20.312 10.856 18.52C10.688 16.728 10.478 15.076 10.226 13.564C9.974 12.052 9.722 10.778 9.47 9.742C9.246 8.678 9.106 7.95 9.05 7.558C8.882 6.802 8.812 6.2 8.84 5.752C8.896 5.276 9.022 4.912 9.218 4.66C9.442 4.38 9.708 4.184 10.016 4.072C10.352 3.932 10.716 3.82 11.108 3.736C11.5 3.624 11.864 3.554 12.2 3.526C12.536 3.47 12.858 3.512 13.166 3.652C13.474 3.792 13.754 4.086 14.006 4.534C14.258 4.954 14.482 5.584 14.678 6.424ZM58.7842 3.442C59.6242 3.442 60.0582 3.54 60.0862 3.736C60.1702 3.904 59.8342 4.184 59.0782 4.576C58.8822 4.66 58.6722 4.758 58.4482 4.87C58.2522 4.954 58.0282 5.052 57.7762 5.164C57.4962 5.304 57.2302 5.416 56.9782 5.5C56.8382 5.556 56.6842 5.626 56.5162 5.71C56.3482 5.766 56.1942 5.822 56.0542 5.878C55.7182 5.99 55.3682 6.102 55.0042 6.214C54.6682 6.298 54.3182 6.41 53.9542 6.55C53.7302 6.606 53.5202 6.662 53.3242 6.718C53.1562 6.774 52.9742 6.83 52.7782 6.886C52.5542 6.942 52.3442 6.998 52.1482 7.054C51.9522 7.082 51.7422 7.124 51.5182 7.18C51.0982 7.292 50.6642 7.404 50.2162 7.516C49.7962 7.6 49.3482 7.684 48.8722 7.768C48.4242 7.852 47.9622 7.936 47.4862 8.02C47.0382 8.076 46.5762 8.146 46.1002 8.23C46.0162 8.258 45.8902 8.272 45.7222 8.272C45.8062 8.888 45.8902 9.588 45.9742 10.372C46.0862 11.156 46.1702 12.024 46.2262 12.976C46.3662 14.628 46.4222 16.42 46.3942 18.352C46.3662 20.284 46.2402 22.216 46.0162 24.148C45.7922 26.08 45.4842 27.942 45.0922 29.734C44.7282 31.498 44.3362 33.052 43.9162 34.396C43.4962 35.74 43.0902 36.79 42.6982 37.546C42.3062 38.302 42.0262 38.652 41.8582 38.596C41.6342 38.54 41.5362 38.092 41.5642 37.252C41.5922 36.412 41.6482 35.32 41.7322 33.976C41.8162 32.604 41.8862 31.064 41.9422 29.356C41.9982 27.62 41.9982 25.828 41.9422 23.98C41.8862 22.132 41.7742 20.312 41.6062 18.52C41.4382 16.728 41.2282 15.076 40.9762 13.564C40.8082 12.556 40.6402 11.646 40.4722 10.834C40.3322 9.994 40.1922 9.294 40.0522 8.734C39.9962 8.734 39.9262 8.748 39.8422 8.776C39.7862 8.776 39.7302 8.776 39.6742 8.776C39.5622 8.748 39.4502 8.734 39.3382 8.734C39.2262 8.734 39.1142 8.734 39.0022 8.734H37.6582C37.4342 8.734 37.2102 8.734 36.9862 8.734C36.7622 8.734 36.5382 8.72 36.3142 8.692C36.0902 8.692 35.8802 8.692 35.6842 8.692C35.4882 8.664 35.2922 8.636 35.0962 8.608C33.4442 8.496 32.0302 8.328 30.8542 8.104C29.7062 7.88 28.9222 7.698 28.5022 7.558C27.6622 7.334 27.0322 7.068 26.6122 6.76C26.1922 6.424 25.9262 6.088 25.8142 5.752C25.7582 5.64 25.7302 5.472 25.7302 5.248C25.7302 5.024 25.7442 4.856 25.7722 4.744C25.8282 4.576 25.8842 4.408 25.9402 4.24C26.0242 4.072 26.1082 3.904 26.1922 3.736C26.3602 3.372 26.5282 3.036 26.6962 2.728C26.7522 2.672 26.7942 2.602 26.8222 2.518C26.8782 2.434 26.9342 2.364 26.9902 2.308C27.0462 2.252 27.1022 2.21 27.1582 2.182C27.2422 2.126 27.3122 2.07 27.3682 2.014C27.6482 1.846 27.9842 1.762 28.3762 1.762C28.7682 1.734 29.3282 1.832 30.0562 2.056C30.4202 2.14 31.0922 2.322 32.0722 2.602C33.0522 2.882 34.2702 3.134 35.7262 3.358C37.2662 3.638 39.0022 3.848 40.9342 3.988C41.0742 3.932 41.2142 3.89 41.3542 3.862C41.5222 3.834 41.6902 3.792 41.8582 3.736C42.2502 3.624 42.6142 3.554 42.9502 3.526C43.2862 3.47 43.6082 3.512 43.9162 3.652C44.1122 3.792 44.3222 3.96 44.5462 4.156C44.7702 4.184 44.9802 4.198 45.1762 4.198C45.3722 4.198 45.5822 4.198 45.8062 4.198C46.2542 4.17 46.7022 4.156 47.1502 4.156C47.5982 4.156 48.0462 4.156 48.4942 4.156C48.9142 4.128 49.3342 4.1 49.7542 4.072C50.2022 4.044 50.6362 4.03 51.0562 4.03C51.2802 4.002 51.4762 3.988 51.6442 3.988C51.8402 3.988 52.0502 3.974 52.2742 3.946C52.4702 3.918 52.6662 3.904 52.8622 3.904C53.0582 3.876 53.2542 3.862 53.4502 3.862C53.8422 3.806 54.2062 3.778 54.5422 3.778C54.9062 3.75 55.2422 3.722 55.5502 3.694C55.7182 3.666 55.8862 3.652 56.0542 3.652C56.2222 3.624 56.3762 3.61 56.5162 3.61C56.6562 3.582 56.7962 3.568 56.9362 3.568C57.0762 3.54 57.2162 3.526 57.3562 3.526C57.6362 3.498 57.8882 3.484 58.1122 3.484C58.3362 3.456 58.5602 3.442 58.7842 3.442ZM64.0346 15.538C63.8666 15.454 63.8526 15.076 63.9926 14.404C64.1326 13.732 64.4686 12.892 65.0006 11.884C65.5046 10.904 66.2326 9.854 67.1846 8.734C68.1646 7.586 69.3266 6.55 70.6706 5.626C71.3146 5.15 71.9866 4.716 72.6866 4.324C73.3866 3.932 74.0866 3.582 74.7866 3.274C76.2146 2.658 77.5866 2.168 78.9026 1.804C80.1906 1.44 81.2966 1.202 82.2206 1.09C83.1726 0.977999 83.8166 0.907999 84.1526 0.879999C84.8806 0.823998 85.4266 0.879998 85.7906 1.048C86.1826 1.188 86.4766 1.398 86.6726 1.678C86.8406 1.958 86.9246 2.28 86.9246 2.644C86.9526 2.98 86.9526 3.344 86.9246 3.736C86.8686 4.128 86.8126 4.492 86.7566 4.828C86.7286 5.164 86.6446 5.472 86.5046 5.752C86.3646 6.004 86.1266 6.2 85.7906 6.34C85.4826 6.48 85.0486 6.564 84.4886 6.592C84.1806 6.62 83.6346 6.648 82.8506 6.676C82.0666 6.704 81.1146 6.802 79.9946 6.97C78.9026 7.138 77.7266 7.404 76.4666 7.768C75.2066 8.104 73.9606 8.552 72.7286 9.112C71.5246 9.672 70.4046 10.33 69.3686 11.086C68.3606 11.814 67.4926 12.528 66.7646 13.228C66.0366 13.928 65.4486 14.516 65.0006 14.992C64.5526 15.44 64.2306 15.622 64.0346 15.538ZM86.9246 24.526C87.0086 24.526 87.0786 24.624 87.1346 24.82C87.1626 24.932 87.1766 25.058 87.1766 25.198C87.2046 25.31 87.2046 25.45 87.1766 25.618C87.1486 25.982 87.0646 26.402 86.9246 26.878C86.7846 27.326 86.5606 27.802 86.2526 28.306C85.9446 28.838 85.5666 29.37 85.1186 29.902C84.6986 30.406 84.2226 30.896 83.6906 31.372C82.5706 32.38 81.3386 33.276 79.9946 34.06C78.6506 34.872 77.2926 35.586 75.9206 36.202C74.5486 36.79 73.2746 37.308 72.0986 37.756C70.8946 38.204 69.8586 38.554 68.9906 38.806C68.1226 39.058 67.5346 39.212 67.2266 39.268C66.5826 39.408 66.0646 39.436 65.6726 39.352C65.2806 39.296 64.9726 39.156 64.7486 38.932C64.5246 38.708 64.3566 38.428 64.2446 38.092C64.1606 37.756 64.0906 37.392 64.0346 37C63.9786 36.608 63.9226 36.244 63.8666 35.908C63.8386 35.572 63.8806 35.25 63.9926 34.942C64.1046 34.662 64.3006 34.424 64.5806 34.228C64.8886 34.004 65.3366 33.822 65.9246 33.682C66.2326 33.626 66.7926 33.514 67.6046 33.346C68.4166 33.178 69.3966 32.954 70.5446 32.674C71.7206 32.422 72.9666 32.114 74.2826 31.75C75.5986 31.358 76.9006 30.91 78.1886 30.406C79.5326 29.874 80.7366 29.328 81.8006 28.768C82.3326 28.46 82.8226 28.152 83.2706 27.844C83.7466 27.536 84.1666 27.228 84.5306 26.92C84.8946 26.612 85.2026 26.318 85.4546 26.038C85.7066 25.73 85.9306 25.464 86.1266 25.24C86.4906 24.736 86.7566 24.498 86.9246 24.526ZM79.4066 17.68C80.3866 18.296 81.2686 18.968 82.0526 19.696C82.8646 20.396 83.5226 21.068 84.0266 21.712C84.5306 22.356 84.8666 22.916 85.0346 23.392C85.2306 23.868 85.2586 24.176 85.1186 24.316C84.9786 24.456 84.6846 24.428 84.2366 24.232C83.7886 24.036 83.2286 23.77 82.5566 23.434C81.9126 23.098 81.1706 22.748 80.3306 22.384C79.4906 21.992 78.6086 21.656 77.6846 21.376C76.7606 21.068 75.8366 20.844 74.9126 20.704C74.0166 20.536 73.1766 20.438 72.3926 20.41C71.6086 20.354 70.9506 20.34 70.4186 20.368C69.8866 20.396 69.5086 20.41 69.2846 20.41C68.5566 20.41 68.0666 20.158 67.8146 19.654C67.6746 19.402 67.5766 19.108 67.5206 18.772C67.4926 18.408 67.4506 18.03 67.3946 17.638C67.3386 17.246 67.2966 16.882 67.2686 16.546C67.2686 16.182 67.3246 15.86 67.4366 15.58C67.5486 15.328 67.7306 15.118 67.9826 14.95C68.2626 14.782 68.6686 14.684 69.2006 14.656C69.4806 14.656 69.9706 14.684 70.6706 14.74C71.3706 14.796 72.2106 14.936 73.1906 15.16C74.1426 15.356 75.1646 15.678 76.2566 16.126C76.8166 16.35 77.3486 16.588 77.8526 16.84C78.3846 17.092 78.9026 17.372 79.4066 17.68ZM123.452 36.034C124.348 36.174 125.062 36.328 125.594 36.496C126.154 36.664 126.434 36.832 126.434 37C126.434 37.224 126.084 37.42 125.384 37.588C124.684 37.784 123.746 37.966 122.57 38.134C122.402 38.386 122.206 38.554 121.982 38.638C121.674 38.778 121.352 38.82 121.016 38.764C120.68 38.736 120.316 38.68 119.924 38.596C119.868 38.568 119.826 38.554 119.798 38.554C119.77 38.554 119.742 38.54 119.714 38.512C118.51 38.652 117.222 38.778 115.85 38.89C114.506 39.03 113.148 39.142 111.776 39.226C110.432 39.338 109.116 39.436 107.828 39.52C106.568 39.604 105.406 39.674 104.342 39.73C103.306 39.786 102.41 39.828 101.654 39.856C100.898 39.884 100.366 39.898 100.058 39.898C99.3861 39.898 98.8541 39.814 98.4621 39.646C98.0981 39.506 97.8181 39.296 97.6221 39.016C97.4541 38.764 97.3561 38.456 97.3281 38.092C97.3001 37.756 97.2861 37.392 97.2861 37C97.2861 36.608 97.3001 36.244 97.3281 35.908C97.3561 35.544 97.4541 35.236 97.6221 34.984C97.8181 34.732 98.0981 34.536 98.4621 34.396C98.8541 34.228 99.3861 34.144 100.058 34.144H100.73V33.976C100.814 32.604 100.884 31.064 100.94 29.356C101.024 27.62 101.038 25.828 100.982 23.98C100.926 22.132 100.8 20.312 100.604 18.52C100.436 16.728 100.226 15.076 99.9741 13.564C99.7501 12.052 99.5121 10.778 99.2601 9.742C99.0361 8.678 98.8821 7.95 98.7981 7.558C98.6301 6.802 98.5601 6.2 98.5881 5.752C98.6441 5.276 98.7841 4.912 99.0081 4.66C99.2041 4.38 99.4561 4.184 99.7641 4.072C100.1 3.932 100.464 3.82 100.856 3.736C101.248 3.624 101.612 3.554 101.948 3.526C102.284 3.47 102.606 3.512 102.914 3.652C103.222 3.792 103.502 4.086 103.754 4.534C104.006 4.954 104.23 5.584 104.426 6.424C104.51 6.844 104.636 7.642 104.804 8.818C104.972 9.966 105.112 11.352 105.224 12.976C105.364 14.628 105.42 16.42 105.392 18.352C105.364 20.284 105.238 22.216 105.014 24.148C104.818 26.08 104.524 27.914 104.132 29.65C103.768 31.386 103.376 32.926 102.956 34.27C103.88 34.326 104.93 34.382 106.106 34.438C107.282 34.494 108.514 34.578 109.802 34.69C111.118 34.774 112.448 34.872 113.792 34.984C115.164 35.096 116.48 35.208 117.74 35.32C117.768 35.208 117.782 35.11 117.782 35.026C117.81 34.942 117.838 34.844 117.866 34.732C117.922 34.34 118.062 33.626 118.286 32.59C118.538 31.526 118.79 30.238 119.042 28.726C119.294 27.214 119.504 25.562 119.672 23.77C119.84 21.978 119.952 20.158 120.008 18.31C120.064 16.462 120.064 14.684 120.008 12.976C119.952 11.24 119.882 9.686 119.798 8.314C119.714 6.97 119.658 5.892 119.63 5.08C119.602 4.24 119.7 3.792 119.924 3.736C120.092 3.68 120.372 4.03 120.764 4.786C121.156 5.542 121.562 6.592 121.982 7.936C122.402 9.28 122.794 10.834 123.158 12.598C123.55 14.362 123.858 16.21 124.082 18.142C124.306 20.074 124.432 22.006 124.46 23.938C124.488 25.87 124.432 27.662 124.292 29.314C124.18 30.966 124.04 32.38 123.872 33.556C123.704 34.704 123.564 35.488 123.452 35.908V36.034ZM155.008 3.736C155.372 3.904 155.694 4.072 155.974 4.24C156.282 4.408 156.52 4.618 156.688 4.87C156.856 5.122 156.94 5.43 156.94 5.794C156.94 6.158 156.8 6.592 156.52 7.096C156.38 7.348 156.1 7.81 155.68 8.482C155.26 9.154 154.728 9.938 154.084 10.834C153.44 11.73 152.684 12.696 151.816 13.732C150.976 14.768 150.066 15.748 149.086 16.672C148.078 17.652 147.028 18.492 145.936 19.192C145.264 19.612 144.578 19.976 143.878 20.284H143.92C144.312 20.452 144.732 20.676 145.18 20.956C145.656 21.236 146.132 21.558 146.608 21.922C147.532 22.622 148.456 23.49 149.38 24.526C149.828 25.002 150.248 25.506 150.64 26.038C151.032 26.57 151.396 27.116 151.732 27.676C152.432 28.768 153.034 29.86 153.538 30.952C154.042 32.044 154.42 33.024 154.672 33.892C154.952 34.76 155.12 35.474 155.176 36.034C155.232 36.594 155.176 36.916 155.008 37C154.812 37.084 154.518 36.93 154.126 36.538C153.762 36.146 153.3 35.614 152.74 34.942C152.18 34.27 151.536 33.514 150.808 32.674C150.108 31.834 149.352 31.008 148.54 30.196C147.784 29.412 146.958 28.656 146.062 27.928C145.166 27.228 144.368 26.696 143.668 26.332C143.108 26.024 142.604 25.8 142.156 25.66C141.736 25.492 141.4 25.38 141.148 25.324C140.924 27.06 140.63 28.712 140.266 30.28C139.93 31.82 139.566 33.192 139.174 34.396C138.754 35.74 138.348 36.79 137.956 37.546C137.564 38.302 137.27 38.652 137.074 38.596C136.878 38.54 136.794 38.092 136.822 37.252C136.85 36.412 136.906 35.32 136.99 33.976C137.074 32.604 137.144 31.064 137.2 29.356C137.256 27.62 137.256 25.828 137.2 23.98C137.144 22.132 137.032 20.312 136.864 18.52C136.696 16.728 136.486 15.076 136.234 13.564C135.982 12.052 135.73 10.778 135.478 9.742C135.254 8.678 135.114 7.95 135.058 7.558C134.89 6.802 134.82 6.2 134.848 5.752C134.904 5.276 135.03 4.912 135.226 4.66C135.45 4.38 135.716 4.184 136.024 4.072C136.332 3.932 136.682 3.82 137.074 3.736C137.466 3.624 137.83 3.554 138.166 3.526C138.53 3.47 138.866 3.512 139.174 3.652C139.482 3.792 139.762 4.086 140.014 4.534C140.266 4.954 140.476 5.584 140.644 6.424C140.756 6.844 140.896 7.642 141.064 8.818C141.232 9.966 141.372 11.352 141.484 12.976C141.624 14.74 141.666 16.658 141.61 18.73C141.666 18.702 141.694 18.688 141.694 18.688C141.722 18.66 141.764 18.632 141.82 18.604C142.52 18.128 143.22 17.498 143.92 16.714C144.62 15.93 145.32 15.034 146.02 14.026C146.72 13.046 147.364 12.038 147.952 11.002C148.568 9.938 149.114 8.958 149.59 8.062C150.066 7.166 150.458 6.382 150.766 5.71C151.074 5.038 151.298 4.59 151.438 4.366C151.69 3.918 151.942 3.596 152.194 3.4C152.474 3.204 152.754 3.106 153.034 3.106C153.342 3.106 153.65 3.176 153.958 3.316C154.294 3.428 154.644 3.568 155.008 3.736ZM173.655 6.424C173.739 6.844 173.865 7.642 174.033 8.818C174.201 9.966 174.341 11.352 174.453 12.976C174.593 14.628 174.649 16.42 174.621 18.352C174.593 20.284 174.467 22.216 174.243 24.148C174.019 26.08 173.725 27.942 173.361 29.734C172.997 31.498 172.591 33.052 172.143 34.396C171.723 35.74 171.317 36.79 170.925 37.546C170.561 38.302 170.281 38.652 170.085 38.596C169.861 38.54 169.763 38.092 169.791 37.252C169.819 36.412 169.875 35.32 169.959 33.976C170.043 32.604 170.113 31.064 170.169 29.356C170.225 27.62 170.225 25.828 170.169 23.98C170.113 22.132 170.001 20.312 169.833 18.52C169.665 16.728 169.455 15.076 169.203 13.564C168.951 12.052 168.699 10.778 168.447 9.742C168.223 8.678 168.083 7.95 168.027 7.558C167.859 6.802 167.789 6.2 167.817 5.752C167.873 5.276 167.999 4.912 168.195 4.66C168.419 4.38 168.685 4.184 168.993 4.072C169.329 3.932 169.693 3.82 170.085 3.736C170.477 3.624 170.841 3.554 171.177 3.526C171.513 3.47 171.835 3.512 172.143 3.652C172.451 3.792 172.731 4.086 172.983 4.534C173.235 4.954 173.459 5.584 173.655 6.424Z" fill="white"/>
</g>
<defs>
<filter id="filter0_d_101_15" x="0.797852" y="0.79599" width="181.864" height="60.102" filterUnits="userSpaceOnUse" color-interpolation-filters="sRGB">
<feFlood flood-opacity="0" result="BackgroundImageFix"/>
<feColorMatrix in="SourceAlpha" type="matrix" values="0 0 0 0 0 0 0 0 0 0 0 0 0 0 0 0 0 0 127 0" result="hardAlpha"/>
<feOffset dy="13"/>
<feGaussianBlur stdDeviation="4"/>
<feComposite in2="hardAlpha" operator="out"/>
<feColorMatrix type="matrix" values="0 0 0 0 0 0 0 0 0 0 0 0 0 0 0 0 0 0 0.35 0"/>
<feBlend mode="normal" in2="BackgroundImageFix" result="effect1_dropShadow_101_15"/>
<feBlend mode="normal" in="SourceGraphic" in2="effect1_dropShadow_101_15" result="shape"/>
</filter>
</defs>
</svg>
